Coordinates
version=1
nRows=29
nColumns=24
inDegrees=yes

Units are S.I. units (second, meters, Newtons, ...)
If the header above contains a line with 'inDegrees', this indicates whether rotational values are in degrees (yes) or radians (no).

endheader
time	pelvis_tilt	pelvis_list	pelvis_rotation	pelvis_tx	pelvis_ty	pelvis_tz	hip_flexion_r	hip_adduction_r	hip_rotation_r	knee_angle_r	ankle_angle_r	subtalar_angle_r	mtp_angle_r	hip_flexion_l	hip_adduction_l	hip_rotation_l	knee_angle_l	ankle_angle_l	subtalar_angle_l	mtp_angle_l	lumbar_extension	lumbar_bending	lumbar_rotation
      1.00000000	      4.87801785	     -0.01377200	      0.29518260	      0.59297950	      1.04456403	      0.04550125	     -2.70200982	      1.86042113	     -3.73645173	    -11.66881159	      7.98036687	     -0.00000119	      0.00000000	     18.74515768	     -3.04118031	     -4.13788280	    -57.76723888	      1.41334163	     -0.00000127	      0.00000000	    -16.43502971	      1.06447511	      1.16963879
      1.01700000	      4.92682993	     -0.03252111	      0.04910898	      0.59107382	      1.04448767	      0.04658691	     -4.17393361	      1.97412253	     -3.53695952	    -10.90616378	      8.37415213	     -0.00000122	      0.00000000	     19.43976239	     -3.05386956	     -4.54481172	    -53.50620469	      1.66406206	     -0.00000245	      0.00000000	    -16.56754432	      0.92652304	      1.51387365
      1.03300000	      4.94848587	     -0.24548181	     -0.13486024	      0.58910934	      1.04396745	      0.04777880	     -5.70309239	      2.30387937	     -3.42016002	     -9.97300560	      8.67134776	     -0.00000125	      0.00000000	     19.95483669	     -3.43093379	     -5.28406710	    -48.74595197	      1.61758096	     -0.00000365	      0.00000000	    -16.71600448	      1.03073688	      1.84123535
      1.05000000	      5.10384166	     -0.59354937	     -0.26006203	      0.58717187	      1.04329822	      0.04849616	     -7.35135284	      2.74144105	     -3.32042582	     -9.11142103	      8.96785306	     -0.00000125	      0.00000000	     20.08710477	     -3.95569046	     -6.27811880	    -43.48917363	      1.27619887	     -0.00000495	      0.00000000	    -17.04720819	      1.27411411	      1.97791509
      1.06700000	      4.98300088	     -1.18256639	     -0.54939066	      0.58507156	      1.04160268	      0.04935575	     -8.61285529	      3.39155928	     -2.99245036	     -8.41728827	      9.29879653	     -0.00000124	      0.00000000	     20.35268917	     -4.74253840	     -7.54385243	    -37.98673707	      0.74332009	     -0.00000597	      0.00000000	    -16.91253035	      1.80039412	      2.46428346
      1.08300000	      4.88757275	     -1.56996686	     -0.79449410	      0.58336364	      1.03967631	      0.04962331	     -9.96052530	      3.77233343	     -2.56248720	     -7.69251757	      9.67860332	     -0.00000127	      0.00000000	     20.30757248	     -5.13631677	     -8.86679748	    -32.06502808	     -0.03037509	     -0.00000650	      0.00000000	    -16.96613220	      2.00109481	      2.64238899
      1.10000000	      4.74844904	     -2.13792774	     -1.06006104	      0.58208779	      1.03725574	      0.05012501	    -11.37183094	      4.33610715	     -2.08047470	     -6.83260027	      9.96001828	     -0.00000108	      0.00000000	     20.28431518	     -5.57883529	     -9.87235705	    -26.31153015	     -0.72514148	     -0.00000617	      0.00000000	    -16.83175081	      2.46975575	      3.03629941
      1.11700000	      4.54895522	     -2.61280024	     -1.31154404	      0.58080583	      1.03445706	      0.05034872	    -12.57907587	      4.77395211	     -1.48783700	     -6.30369419	     10.41726374	     -0.00000099	      0.00000000	     20.18849266	     -5.71497900	    -10.27166222	    -20.50330503	     -1.32473532	     -0.00000548	      0.00000000	    -16.72078561	      2.83922688	      3.11743607
      1.13300000	      4.40393255	     -3.16994195	     -1.79651827	      0.57924466	      1.03138949	      0.05032444	    -13.71150123	      5.18738017	     -0.63384882	     -6.04225322	     10.96265404	     -0.00000099	      0.00000000	     20.03444111	     -5.90674294	    -10.10394553	    -15.09385682	     -1.62576863	     -0.00000427	      0.00000000	    -16.69559173	      3.17400231	      3.60976399
      1.15000000	      4.47046991	     -3.67194720	     -2.03109583	      0.57844186	      1.02848417	      0.04983811	    -15.13514857	      5.55670720	     -0.01080767	     -5.71925004	     11.44464149	     -0.00000095	      0.00000000	     19.49591289	     -5.93636489	     -9.07969807	     -9.91145151	     -1.73071728	     -0.00000325	      0.00000000	    -16.81663594	      3.60452567	      3.94985528
      1.16700000	      4.42761464	     -4.01294599	     -2.37624149	      0.57805999	      1.02518796	      0.04966426	    -16.50383132	      5.72646111	      0.54774097	     -5.33705863	     11.89710284	     -0.00000090	      0.00000000	     19.13704011	     -5.95339664	     -7.86235282	     -5.68837937	     -1.52025608	     -0.00000218	      0.00000000	    -16.91744451	      3.63672669	      3.90046566
      1.18300000	      4.54467326	     -4.35642581	     -2.92031663	      0.57751124	      1.02230104	      0.04926084	    -17.78642357	      5.76299308	      1.24500096	     -5.46034155	     12.42703104	     -0.00000072	      0.00000000	     18.68594126	     -6.10406334	     -6.84640470	     -2.58644748	     -1.11947060	     -0.00000139	      0.00000000	    -17.03605278	      3.75429767	      4.53702996
      1.20000000	      4.43720160	     -4.46875527	     -3.19813380	      0.57780755	      1.01926710	      0.04877116	    -18.90248358	      5.65079496	      1.60375047	     -5.47443337	     12.80827182	     -0.00000054	      0.00000000	     18.60815677	     -6.02056685	     -5.86769034	     -0.71918934	     -0.75764291	     -0.00000097	      0.00000000	    -16.92744466	      3.53584903	      4.26124755
      1.21700000	      4.55024528	     -4.58195402	     -3.43240375	      0.57736345	      1.01701207	      0.04797461	    -19.82230236	      5.51390278	      1.95464775	     -6.24730764	     13.29816104	     -0.00000022	      0.00000000	     18.70703615	     -5.97197857	     -5.03533613	     -0.61689257	     -0.41704828	     -0.00000077	      0.00000000	    -17.14079306	      3.30150541	      4.35596279
      1.23300000	      4.65652081	     -4.48583126	     -3.77239072	      0.57770443	      1.01519219	      0.04693922	    -20.64202208	      5.09694699	      2.41229101	     -7.21003908	     13.70561936	      0.00000007	      0.00000000	     18.82641807	     -5.73624964	     -4.56127372	     -1.60566964	     -0.40817968	     -0.00000088	      0.00000000	    -17.20863011	      2.81762131	      4.30693272
      1.25000000	      4.58175096	     -4.30672552	     -4.37069665	      0.57916946	      1.01374328	      0.04531217	    -21.08172322	      4.46492042	      3.04605643	     -8.64099820	     14.03030140	      0.00000047	      0.00000000	     19.09869518	     -5.46817511	     -4.46442100	     -3.46019317	     -0.79451655	     -0.00000120	      0.00000000	    -16.94882654	      2.31277017	      4.51764354
      1.26700000	      4.43461182	     -4.03925109	     -4.41881491	      0.58130016	      1.01239240	      0.04343614	    -21.25929386	      3.98152601	      3.16076635	    -10.45486879	     14.25611559	      0.00000088	      0.00000000	     19.66016107	     -4.99140371	     -3.98788772	     -6.04082280	     -1.55966756	     -0.00000153	      0.00000000	    -16.48145086	      1.75857774	      4.33133800
      1.28300000	      4.21652775	     -4.15515169	     -4.62940756	      0.58223802	      1.01141539	      0.04208558	    -20.89566539	      3.88680272	      3.46966779	    -13.07825180	     14.27769953	      0.00000133	      0.00000000	     20.22526418	     -5.01956686	     -3.73570782	     -8.61124971	     -2.66759106	     -0.00000175	      0.00000000	    -16.25020243	      1.44140731	      4.26726097
      1.30000000	      4.10429903	     -3.98242493	     -4.85689293	      0.58474068	      1.01119772	      0.04048509	    -20.69187074	      3.44782548	      3.61665416	    -15.61638088	     13.78499493	      0.00000193	      0.00000000	     20.57447908	     -4.77645150	     -3.74056906	    -11.26241259	     -3.51952456	     -0.00000195	      0.00000000	    -15.86795034	      0.76220803	      4.16600501
      1.31700000	      4.23661082	     -3.69110610	     -5.04891854	      0.58775957	      1.01184572	      0.03865492	    -20.19761899	      2.89179529	      3.64650447	    -19.15325045	     12.98028415	      0.00000259	      0.00000000	     20.48839681	     -4.40265394	     -3.91292120	    -13.70183203	     -4.03568260	     -0.00000198	      0.00000000	    -15.69884142	     -0.01335569	      3.87474288
      1.33300000	      4.42822063	     -3.41731848	     -5.09628091	      0.59091477	      1.01299168	      0.03659284	    -19.23731113	      2.38930624	      3.32219461	    -23.53875835	     11.59933855	      0.00000330	      0.00000000	     20.17585007	     -4.00366519	     -3.98439602	    -15.89983024	     -4.13084694	     -0.00000216	      0.00000000	    -15.53715230	     -0.71498964	      3.63823016
      1.35000000	      4.87447394	     -3.04412038	     -5.00875521	      0.59424408	      1.01491948	      0.03399241	    -18.00988999	      1.70837494	      2.45981737	    -28.63741757	      9.32346359	      0.00000403	      0.00000000	     19.34582988	     -3.42199210	     -4.01742520	    -17.70195307	     -3.86095390	     -0.00000232	      0.00000000	    -15.60669538	     -1.44639855	      3.28309178
      1.36700000	      5.17537729	     -2.59903199	     -4.78827195	      0.59728521	      1.01679722	      0.03065482	    -16.01589339	      0.81187144	      1.01536148	    -34.44635577	      6.02262890	      0.00000463	      0.00000000	     18.43222874	     -2.70442181	     -4.01462553	    -19.03136678	     -3.33231652	     -0.00000228	      0.00000000	    -15.57677385	     -2.13349112	      2.76515670
      1.38300000	      5.33380271	     -2.05554498	     -4.63547680	      0.59966844	      1.01854331	      0.02699543	    -13.34073517	     -0.47822922	     -0.76975028	    -40.62724700	      1.82709709	      0.00000469	      0.00000000	     17.43658122	     -1.88398705	     -4.11338558	    -19.89063165	     -2.58747173	     -0.00000225	      0.00000000	    -15.50334995	     -2.82011705	      2.38835440
      1.40000000	      5.40587451	     -1.49151783	     -4.46866422	      0.60129912	      1.02025211	      0.02343228	    -10.34913396	     -1.99010571	     -2.57055098	    -46.56694230	     -2.72925548	      0.00000352	      0.00000000	     16.41905790	     -1.02596854	     -4.15730813	    -20.47861065	     -1.64555531	     -0.00000213	      0.00000000	    -15.30549144	     -3.49064171	      1.69164430
      1.41700000	      5.63155994	     -0.90463998	     -4.37939106	      0.60262428	      1.02271334	      0.01969311	     -7.55839748	     -3.66539320	     -4.03904458	    -51.81741467	     -6.65939710	      0.00000160	      0.00000000	     14.86747615	     -0.09005035	     -4.28384238	    -20.32388265	     -0.77381106	     -0.00000204	      0.00000000	    -15.42851843	     -4.12723361	      1.17630236
      1.43300000	      5.80428511	     -0.23856729	     -4.56150280	      0.60246433	      1.02496201	      0.01635226	     -4.54075972	     -5.33130072	     -4.69693552	    -56.79075503	     -8.75469966	     -0.00000084	      0.00000000	     13.30983065	      0.88287938	     -4.63128661	    -19.88667744	      0.02244577	     -0.00000201	      0.00000000	    -15.54540847	     -4.80020335	      0.97119891
      1.45000000	      5.97914085	      0.20108916	     -4.72150314	      0.60199174	      1.02758313	      0.01303786	     -1.67244064	     -6.51892902	     -4.87660739	    -61.05711090	     -8.86916915	     -0.00000332	      0.00000000	     11.70065017	      1.65503763	     -4.85296440	    -19.34389937	      0.79767919	     -0.00000208	      0.00000000	    -15.57540920	     -5.15805339	      0.68926201
      1.46700000	      6.00817305	      0.10098259	     -4.18634187	      0.60241937	      1.03084383	      0.00953363	      0.78572779	     -6.79583232	     -5.46305533	    -64.17446449	     -7.57722553	     -0.00000541	      0.00000000	     10.09061685	      1.94554474	     -4.29340843	    -18.61800009	      1.51067914	     -0.00000192	      0.00000000	    -15.54801173	     -4.80910015	     -0.32341043
